<svg width="38" height="38" viewBox="0 0 38 38" fill="none" xmlns="http://www.w3.org/2000/svg">
<path d="M22.7971 9.2921C22.9899 8.75448 23.76 8.75448 23.9528 9.2921L24.4802 10.7622C24.542 10.9343 24.679 11.0697 24.8532 11.1307L26.3418 11.6516C26.886 11.8421 26.886 12.6024 26.3418 12.7929L24.8532 13.3138C24.679 13.3748 24.542 13.5101 24.4802 13.6822L23.9528 15.1524C23.76 15.69 22.9899 15.69 22.7971 15.1524L22.2698 13.6822C22.208 13.5101 22.0709 13.3748 21.8967 13.3138L20.4081 12.7929C19.864 12.6024 19.864 11.8421 20.4081 11.6516L21.8967 11.1307C22.0709 11.0697 22.208 10.9343 22.2698 10.7622L22.7971 9.2921Z" fill="#7A8292"/>
<path d="M28.6149 15.8244C28.7435 15.466 29.2567 15.466 29.3853 15.8244L29.7369 16.8044C29.7781 16.9192 29.8695 17.0094 29.9857 17.05L30.9778 17.3974C31.3408 17.5244 31.3408 18.0312 30.9778 18.1582L29.9857 18.5054C29.8695 18.5462 29.7781 18.6364 29.7369 18.7512L29.3853 19.7312C29.2567 20.0896 28.7435 20.0896 28.6149 19.7312L28.2632 18.7512C28.222 18.6364 28.1307 18.5462 28.0145 18.5054L27.0223 18.1582C26.6592 18.0312 26.6592 17.5244 27.0223 17.3974L28.0145 17.05C28.1307 17.0094 28.222 16.9192 28.2632 16.8044L28.6149 15.8244Z" fill="#7A8292"/>
<path d="M31.5386 0.58368C31.8178 -0.19456 32.9322 -0.19456 33.2114 0.58368L34.1684 3.25102C34.2576 3.50012 34.4562 3.6961 34.7084 3.78438L37.409 4.7295C38.197 5.00526 38.197 6.10586 37.409 6.38162L34.7084 7.32674C34.4562 7.415 34.2576 7.61098 34.1684 7.8601L33.2114 10.5274C32.9322 11.3057 31.8178 11.3057 31.5386 10.5274L30.5816 7.8601C30.4924 7.61098 30.2938 7.415 30.0416 7.32674L27.341 6.38162C26.553 6.10586 26.553 5.00526 27.341 4.7295L30.0416 3.78438C30.2938 3.6961 30.4924 3.50012 30.5816 3.25102L31.5386 0.58368Z" fill="#7A8292"/>
<path d="M2 20.9194C2 29.2482 8.9484 36 17.5196 36C24.1182 36 29.7548 31.9986 32 26.3566C30.2218 27.1682 28.2362 27.6218 26.1418 27.6218C18.5228 27.6218 12.3465 21.6202 12.3465 14.2168C12.3465 11.1205 13.4268 8.26942 15.2411 6C7.75004 7.071 2 13.3426 2 20.9194Z" fill="#DDE0E2" stroke="#859CC7" stroke-width="4" stroke-linecap="round" stroke-linejoin="round"/>
</svg>
