<svg width="43" height="41" viewBox="0 0 43 41" fill="none" xmlns="http://www.w3.org/2000/svg">
<path d="M4.60347 40.6357L6.82655 40.0407L7.42305 38.7486L11.2758 38.8498L15.2827 37.7773L16.1851 36.3782L19.9344 36.5322L23.8488 35.4845C26.5679 34.7594 27.4894 31.3454 25.4954 29.3514L11.4164 15.2573C9.42235 13.2632 6.00834 14.1696 5.28324 16.9038L4.11611 21.2644L4.2795 24.8062L2.94896 25.625L1.75573 30.0829L1.95567 33.4785L0.65129 34.2092L0.132029 36.1491C-0.608175 38.8683 1.88435 41.3608 4.60347 40.6357Z" fill="#E9AD56"/>
<path d="M8.75887 33.3131C6.52267 31.225 4.61795 28.7109 2.9361 25.673L4.11036 21.2859C6.04164 25.5124 8.21413 28.6716 10.8203 31.1052C13.332 33.4507 16.3072 35.179 19.9904 36.5171L15.2633 37.7824C12.8435 36.5783 10.6913 35.1177 8.75887 33.3131Z" fill="#6F7285"/>
<path d="M3.45102 37.5936C2.382 36.5939 1.46303 35.4742 0.648743 34.219L1.77394 30.0151C2.8354 32.2662 4.02431 33.9941 5.51409 35.3872C7.00033 36.7771 8.85019 37.8939 11.312 38.84L6.7971 40.0485C5.55421 39.3346 4.44699 38.5251 3.45102 37.5936Z" fill="#6F7285"/>
<path d="M25.8429 34.276C27.9577 32.1611 25.3293 26.1186 19.9817 20.771C14.6341 15.4234 8.60664 12.795 6.49177 14.9098C4.37691 17.0247 7.00539 23.0672 12.353 28.4148C17.7006 33.7624 23.7431 36.3757 25.8429 34.276Z" fill="#4B3125"/>
<path d="M14.5132 6.45041C16.3863 9.95505 16.764 13.9732 15.6008 17.7649C14.6189 20.9976 12.5947 23.7318 9.84537 25.6201C9.05985 24.6382 8.38007 23.6563 7.80603 22.7046C9.90579 21.2695 11.4466 19.1849 12.2019 16.7226C13.0932 13.8373 12.8062 10.7858 11.3862 8.1272C10.9179 7.25104 11.2502 6.1785 12.1113 5.72531C12.9874 5.25702 14.06 5.58936 14.5132 6.45041Z" fill="#F374BA"/>
<path d="M30.4348 20.7145C33.291 18.4583 36.9953 17.9989 40.1842 19.1882C41.0036 19.4938 41.9157 19.0773 42.2213 18.2578C42.5269 17.4385 42.1103 16.5265 41.2909 16.2209C37.108 14.6609 32.232 15.2589 28.4716 18.2294C27.7854 18.7714 27.6686 19.7672 28.2108 20.4535C28.7528 21.1398 29.7486 21.2567 30.4348 20.7145Z" fill="#F374BA"/>
<path d="M6.05371 10.1061C7.02149 10.1061 7.80603 9.32155 7.80603 8.35378C7.80603 7.386 7.02149 6.60146 6.05371 6.60146C5.08593 6.60146 4.30139 7.386 4.30139 8.35378C4.30139 9.32155 5.08593 10.1061 6.05371 10.1061Z" fill="#F374BA"/>
<path d="M36.4474 8.35378C36.4474 9.32155 35.6628 10.1061 34.6951 10.1061C33.7273 10.1061 32.9428 9.32155 32.9428 8.35378C32.9428 7.386 33.7273 6.60146 34.6951 6.60146C35.6628 6.60146 36.4474 7.386 36.4474 8.35378Z" fill="#F374BA"/>
<path d="M15.8425 1.4502C15.8425 2.25111 15.1933 2.90039 14.3923 2.90039C13.5914 2.90039 12.9421 2.25111 12.9421 1.4502C12.9421 0.64928 13.5914 0 14.3923 0C15.1933 0 15.8425 0.64928 15.8425 1.4502Z" fill="#E9AD56"/>
<path d="M35.4655 32.3424C35.4655 33.1516 34.8095 33.8077 34.0002 33.8077C33.191 33.8077 32.5349 33.1516 32.5349 32.3424C32.5349 31.5331 33.191 30.8771 34.0002 30.8771C34.8095 30.8771 35.4655 31.5331 35.4655 32.3424Z" fill="#E9AD56"/>
<path d="M29.6496 1.54082C29.4079 1.32933 29.1057 1.19338 28.7734 1.17827C27.9577 1.13295 27.2628 1.75231 27.2024 2.56804C27.0966 4.22972 25.9485 7.23586 25.5105 8.24797C25.5105 8.25553 25.5067 8.26308 25.5029 8.27063C25.4991 8.27819 25.4954 8.28574 25.4954 8.29329C25.4144 8.49279 25.3278 8.68951 25.2357 8.88316C25.0816 8.69018 24.9114 8.51354 24.7249 8.35373C24.302 7.97608 23.7884 7.68906 23.1841 7.49268L23.1388 7.47757C21.0995 6.79779 18.8788 7.90055 18.1991 9.95499C17.8667 10.952 17.9423 12.0094 18.4105 12.946C18.8788 13.8826 19.6795 14.5775 20.6765 14.9098C20.7834 14.9455 20.892 14.9681 21.0004 14.9784C21.7635 15.1846 22.5022 15.1917 23.2133 15.0008C23.1702 15.2082 23.1202 15.4145 23.0633 15.6198C22.8518 16.4053 23.3201 17.2211 24.1056 17.4326C24.8911 17.644 25.7068 17.1758 25.9183 16.3902C26.2587 15.1597 26.4061 13.9065 26.3608 12.6404C27.1468 11.6558 27.7746 10.571 28.2447 9.39605L28.2669 9.34221C28.547 8.66453 30.0165 5.10901 30.1632 2.73421C30.1783 2.26592 29.9819 1.82784 29.6496 1.54082ZM22.2777 10.2873C22.6938 10.426 23.1202 10.6594 23.3027 11.6108C22.5587 12.3017 22.0814 12.2259 21.6584 12.085C21.6075 12.068 21.5563 12.054 21.5049 12.0428C21.3131 11.9526 21.1587 11.7934 21.0692 11.6016C20.9484 11.375 20.9333 11.1182 21.0239 10.8765C21.1901 10.378 21.7339 10.1061 22.2324 10.2722L22.2777 10.2873Z" fill="#62A7C4"/>
<path d="M24.574 22.901C29.7252 21.4659 35.1181 22.1155 39.7708 24.744C40.6319 25.2425 40.934 26.315 40.4657 27.161C39.9823 28.022 38.8947 28.3241 38.0336 27.8408C34.2117 25.6957 29.7705 25.1518 25.5408 26.3301C22.0512 27.2969 19.0602 29.3514 16.9 32.1913C15.9785 31.5569 15.0269 30.8318 14.0903 30.016C16.7036 26.5869 20.3442 24.0793 24.574 22.901Z" fill="#62A7C4"/>
<path d="M22.0874 21.1265C22.0874 22.086 21.3096 22.8637 20.3502 22.8637C19.3908 22.8637 18.613 22.086 18.613 21.1265C18.613 20.1671 19.3908 19.3893 20.3502 19.3893C21.3096 19.3893 22.0874 20.1671 22.0874 21.1265Z" fill="#62A7C4"/>
</svg>
