<svg width="44" height="44" viewBox="0 0 44 44" fill="none" xmlns="http://www.w3.org/2000/svg">
<path d="M19.5556 2.44444C19.5556 2.44444 19.5556 0 22 0C24.4444 0 24.4444 2.44444 24.4444 2.44444V4.88889C24.4444 4.88889 24.4444 7.33333 22 7.33333C19.5556 7.33333 19.5556 4.88889 19.5556 4.88889V2.44444ZM41.5556 19.5556C41.5556 19.5556 44 19.5556 44 22C44 24.4444 41.5556 24.4444 41.5556 24.4444H39.1111C39.1111 24.4444 36.6667 24.4444 36.6667 22C36.6667 19.5556 39.1111 19.5556 39.1111 19.5556H41.5556ZM4.88889 19.5556C4.88889 19.5556 7.33333 19.5556 7.33333 22C7.33333 24.4444 4.88889 24.4444 4.88889 24.4444H2.44444C2.44444 24.4444 0 24.4444 0 22C0 19.5556 2.44444 19.5556 2.44444 19.5556H4.88889ZM11.1479 8.91367C11.1479 8.91367 12.8761 10.6419 11.1479 12.3701C9.41967 14.0983 7.69144 12.3701 7.69144 12.3701L5.962 10.6431C5.962 10.6431 4.23378 8.91489 5.962 7.18544C7.69144 5.45722 9.41967 7.18544 9.41967 7.18544L11.1479 8.91367ZM36.8146 34.5803C36.8146 34.5803 38.5428 36.3086 36.8146 38.0368C35.0863 39.765 33.3581 38.0368 33.3581 38.0368L31.6299 36.3086C31.6299 36.3086 29.9017 34.5803 31.6299 32.8521C33.3581 31.1239 35.0863 32.8521 35.0863 32.8521L36.8146 34.5803ZM36.3098 12.3701C36.3098 12.3701 34.5816 14.0983 32.8533 12.3701C31.1251 10.6419 32.8533 8.91367 32.8533 8.91367L34.5816 7.18544C34.5816 7.18544 36.3098 5.45722 38.038 7.18544C39.7662 8.91367 38.038 10.6419 38.038 10.6419L36.3098 12.3701ZM10.6431 38.0368C10.6431 38.0368 8.91489 39.765 7.18667 38.0368C5.45844 36.3086 7.18667 34.5803 7.18667 34.5803L8.91489 32.8521C8.91489 32.8521 10.6431 31.1239 12.3713 32.8521C14.0996 34.5803 12.3713 36.3086 12.3713 36.3086L10.6431 38.0368ZM19.5556 39.1111C19.5556 39.1111 19.5556 36.6667 22 36.6667C24.4444 36.6667 24.4444 39.1111 24.4444 39.1111V41.5556C24.4444 41.5556 24.4444 44 22 44C19.5556 44 19.5556 41.5556 19.5556 41.5556V39.1111Z" fill="#E9AD56"/>
<path d="M22 34.2222C28.7501 34.2222 34.2222 28.7501 34.2222 22C34.2222 15.2499 28.7501 9.77778 22 9.77778C15.2498 9.77778 9.77774 15.2499 9.77774 22C9.77774 28.7501 15.2498 34.2222 22 34.2222Z" fill="#E9AD56"/>
</svg>
