<svg width="386" height="375" viewBox="0 0 386 375" fill="none" xmlns="http://www.w3.org/2000/svg">
<path d="M17.9501 99.5023C31.9611 67.7882 45.9721 31.8455 77.1077 14.2265C108.243 -3.62738 156.815 -2.92261 197.602 6.70909C238.701 16.3408 272.327 35.1343 300.349 54.1628C328.683 73.1913 351.723 92.4547 349.855 114.302C348.298 136.385 321.833 160.816 329.928 189.007C337.712 216.962 380.056 248.441 385.349 275.222C390.954 302.238 359.507 324.32 323.39 343.584C287.273 362.847 246.174 379.526 209.434 373.888C172.694 368.25 140.313 340.53 128.17 310.46C116.338 280.625 124.745 248.676 102.95 227.533C81.1553 206.391 28.5362 195.819 9.54354 177.026C-9.76049 158.232 3.93915 131.216 17.9501 99.5023Z" fill="#00CCFF"/>
</svg>
